<svg width="17" height="21" viewBox="0 0 17 21" fill="none" xmlns="http://www.w3.org/2000/svg">
<path d="M13.9483 10.8805C13.9231 8.35224 16.01 7.13962 16.1033 7.07836C14.9304 5.36349 13.1032 5.12819 12.4529 5.10142C10.8991 4.9436 9.41949 6.01666 8.63123 6.01666C7.84459 6.01666 6.6267 5.12454 5.33822 5.14726C3.64323 5.17241 2.0809 6.1331 1.20866 7.65039C-0.551648 10.704 0.758337 15.2296 2.47361 17.7079C3.31218 18.9193 4.31222 20.2825 5.62423 20.2326C6.88878 20.1827 7.36587 19.4147 8.89453 19.4147C10.4232 19.4147 10.8524 20.2326 12.19 20.207C13.5499 20.1823 14.412 18.9725 15.2436 17.7562C16.2063 16.3489 16.6027 14.9861 16.6262 14.9172C16.5966 14.9034 13.9754 13.8993 13.9483 10.8805Z" fill="black"/>
<path d="M11.4348 3.46114C12.1305 2.61648 12.6019 1.44281 12.4737 0.274414C11.4697 0.314983 10.2542 0.94178 9.53328 1.78562C8.88741 2.53453 8.32269 3.72687 8.47401 4.87417C9.59413 4.96099 10.7366 4.30417 11.4348 3.46114Z" fill="black"/>
</svg>
